<?xml version="1.0" encoding="UTF-8" standalone="no"?>
<!-- Created with Inkscape (http://www.inkscape.org/) -->

<svg
   xmlns:dc="http://purl.org/dc/elements/1.1/"
   xmlns:cc="http://creativecommons.org/ns#"
   xmlns:rdf="http://www.w3.org/1999/02/22-rdf-syntax-ns#"
   xmlns:svg="http://www.w3.org/2000/svg"
   xmlns="http://www.w3.org/2000/svg"
   xmlns:sodipodi="http://sodipodi.sourceforge.net/DTD/sodipodi-0.dtd"
   xmlns:inkscape="http://www.inkscape.org/namespaces/inkscape"
   width="16"
   height="16"
   viewBox="0 0 4.2333332 4.2333335"
   version="1.1"
   id="svg1135"
   inkscape:version="0.92.3 (2405546, 2018-03-11)"
   sodipodi:docname="titlebutton-close-active.svg">
  <defs
     id="defs1129" />
  <sodipodi:namedview
     id="base"
     pagecolor="#ffffff"
     bordercolor="#666666"
     borderopacity="1.0"
     inkscape:pageopacity="0.0"
     inkscape:pageshadow="2"
     inkscape:zoom="49.25"
     inkscape:cx="4.4060914"
     inkscape:cy="8"
     inkscape:document-units="mm"
     inkscape:current-layer="layer1"
     showgrid="false"
     units="px"
     inkscape:window-width="1920"
     inkscape:window-height="966"
     inkscape:window-x="0"
     inkscape:window-y="29"
     inkscape:window-maximized="1" />
  <metadata
     id="metadata1132">
    <rdf:RDF>
      <cc:Work
         rdf:about="">
        <dc:format>image/svg+xml</dc:format>
        <dc:type
           rdf:resource="http://purl.org/dc/dcmitype/StillImage" />
        <dc:title />
      </cc:Work>
    </rdf:RDF>
  </metadata>
  <g
     inkscape:label="Layer 1"
     inkscape:groupmode="layer"
     id="layer1"
     transform="translate(0,-292.76663)">
    <path
       inkscape:connector-curvature="0"
       id="path2-4"
       d="m 2.1166825,296.73538 c 1.022858,0 1.8520648,-0.82921 1.8520648,-1.85209 0,-1.02288 -0.8292068,-1.85208 -1.8520648,-1.85208 -1.0228924,0 -1.85209917,0.8292 -1.85209917,1.85208 0,1.02288 0.82920677,1.85209 1.85209917,1.85209"
       style="display:inline;fill:#c64f00;fill-opacity:1;fill-rule:evenodd;stroke:none;stroke-width:0.26458332;enable-background:new" />
    <path
       inkscape:connector-curvature="0"
       id="path4-05"
       d="m 2.1166825,296.60311 c 0.949796,0 1.7197732,-0.77002 1.7197732,-1.71982 0,-0.94982 -0.7699772,-1.71979 -1.7197732,-1.71979 -0.9498304,0 -1.71980757,0.76997 -1.71980757,1.71979 0,0.9498 0.76997717,1.71982 1.71980757,1.71982"
       style="display:inline;fill:#f3a368;fill-opacity:1;fill-rule:evenodd;stroke:none;stroke-width:0.26458332;enable-background:new" />
    <path
       inkscape:connector-curvature="0"
       id="path4-6-9"
       d="m 1.3485283,294.16802 c -0.1036479,0.10364 -0.1036479,0.27051 0,0.37417 l 0.3741764,0.37418 -0.3741764,0.37417 c -0.1036479,0.10366 -0.1036479,0.27054 0,0.37417 0.1036479,0.10367 0.2705285,0.10367 0.3741764,0 l 0.374179,-0.37417 0.3741764,0.37417 c 0.1036479,0.10367 0.2705312,0.10367 0.3741764,0 0.1036479,-0.10363 0.1036479,-0.27051 0,-0.37417 l -0.3741764,-0.37417 0.3741764,-0.37418 c 0.1036479,-0.10366 0.1036479,-0.27053 0,-0.37417 -0.1036452,-0.10367 -0.2705285,-0.10367 -0.3741764,0 l -0.3741764,0.37417 -0.374179,-0.37417 c -0.1036479,-0.10367 -0.2705285,-0.10367 -0.3741764,0 z"
       style="display:inline;opacity:0.5;fill:#000000;fill-opacity:1;stroke:none;stroke-width:0.52916664;stroke-linecap:round;stroke-linejoin:round;stroke-miterlimit:4;stroke-dasharray:none;stroke-opacity:1;enable-background:new" />
    <rect
       style="fill:none;stroke-width:0.26458332"
       id="rect1178"
       width="4.2333331"
       height="4.2387052"
       x="0"
       y="292.76126" />
  </g>
</svg>
